<?xml version="1.0" encoding="UTF-8" standalone="no"?>
<svg xmlns="http://www.w3.org/2000/svg" viewBox="0 0 258.46 183.32">
  <defs><style>.cls-1{fill:#fc5030;}</style></defs>
  <title>CeroUno Logo</title>
    <g id="Layer_2" data-name="Layer 2">
      <g id="Layer_1-2" data-name="Layer 1">
        <path class="cls-1" d="M60.42,176.25c4.21,0,7.21-1.56,10.2-4.49l5.07,4.49a19,19,0,0,1-15.41,7.06c-10.91,0-19.33-7.91-19.33-19.62,0-10.84,7.63-19.69,18.4-19.69,12,0,18,9.42,18,20.33,0,.79-.07,1.49-.14,2.35H49.58C50.58,172.83,54.86,176.25,60.42,176.25ZM68.83,161c-.56-5.57-3.85-9.92-9.55-9.92-5.28,0-9,4.06-9.78,9.92Z"/>
        <path class="cls-1" d="M88.89,182.46H80.25V144.8h8.63v8.48c2.35-5.63,6.71-9.48,13.34-9.19v9.13h-.5c-7.56,0-12.84,4.93-12.84,14.91Z"/>
        <path class="cls-1" d="M122.34,183.32c-11.48,0-20-8.77-20-19.55A19.71,19.71,0,0,1,122.49,144c11.55,0,20,8.78,20,19.62S134,183.32,122.34,183.32Zm0-31.74c-6.91,0-11.33,5.42-11.33,12.06s4.78,12.2,11.48,12.2c7,0,11.41-5.43,11.41-12.06S129.12,151.57,122.34,151.57Z"/>
        <path class="cls-1" d="M170.14,144.8h8.63v37.66h-8.63v-5.85c-2.42,3.56-5.92,6.63-11.78,6.63-8.47,0-13.41-5.71-13.41-14.48v-24h8.63v21.4c0,5.85,2.93,9.2,8.06,9.2s8.49-3.5,8.49-9.35Z"/>
        <path class="cls-1" d="M190.69,182.46h-8.62V144.8h8.62v5.85c2.43-3.56,5.92-6.64,11.77-6.64,8.49,0,13.41,5.71,13.41,14.48v24h-8.63v-21.4c0-5.85-2.92-9.2-8.06-9.2s-8.49,3.5-8.49,9.34Z"/>
        <path class="cls-1" d="M238.27,183.32c-11.48,0-20-8.77-20-19.55A19.71,19.71,0,0,1,238.41,144c11.56,0,20,8.78,20,19.62S249.89,183.32,238.27,183.32Zm0-31.74c-6.92,0-11.34,5.42-11.34,12.06s4.78,12.2,11.48,12.2c7,0,11.41-5.43,11.41-12.06S245,151.57,238.27,151.57Z"/>
        <path class="cls-1" d="M31.19,166.7a11,11,0,0,1-11.08,9.13c-6.71,0-11.48-5.5-11.48-12.2S13,151.57,20,151.57A11.41,11.41,0,0,1,31.21,161h8.68a19.47,19.47,0,0,0-19.78-17A19.7,19.7,0,0,0,0,163.77c0,10.78,8.48,19.55,20,19.55A19.68,19.68,0,0,0,39.85,166.7Z"/>
        <path class="cls-1" d="M50.35,50.66h51.81a51.13,51.13,0,1,0,0,3.38H50.35Z"/>
        <polygon class="cls-1" points="102.17 0 102.17 50.66 102.17 54.04 102.17 104.71 142.32 104.71 142.32 0 102.17 0"/>
      </g>
    </g>
</svg>
