<?xml version="1.0" encoding="UTF-8" standalone="no"?>
<svg width="61px" height="41px" viewBox="0 0 61 41" version="1.1" xmlns="http://www.w3.org/2000/svg" xmlns:xlink="http://www.w3.org/1999/xlink">
    <!-- Generator: Sketch 46.2 (44496) - http://www.bohemiancoding.com/sketch -->
    <title>Fill 1 Copy</title>
    <desc>Created with Sketch.</desc>
    <defs></defs>
    <g id="Page-1" stroke="none" stroke-width="1" fill="none" fill-rule="evenodd">
        <g id="Landing" transform="translate(-100.000000, -10.000000)" fill="#FF4F23">
            <path d="M112.410122,35.3046626 C119.264291,35.3046626 124.820489,29.7297663 124.820489,22.8527762 C124.820489,15.975786 119.264291,10.4008898 112.410122,10.4008898 C105.556198,10.4008898 100,15.975786 100,22.8527762 C100,29.7297663 105.556198,35.3046626 112.410122,35.3046626 L112.410122,35.3046626 Z M125.635972,35.7055523 L135.461406,35.7055523 L135.461406,10 L125.635972,10 L125.635972,35.7055523 Z M158.719436,46.5641904 C158.719436,45.279281 157.807309,44.2231709 156.474105,44.2231709 C155.140657,44.2231709 154.228529,45.279281 154.228529,46.5641904 C154.228529,47.8493453 155.140657,48.8877798 156.474105,48.8877798 C157.807309,48.8877798 158.719436,47.8493453 158.719436,46.5641904 L158.719436,46.5641904 Z M161,46.5641904 C161,49.0284472 159.052921,51 156.474105,51 C153.89529,51 151.947966,49.0284472 151.947966,46.5641904 C151.947966,44.0999335 153.89529,42.1109508 156.474105,42.1109508 C159.052921,42.1109508 161,44.0999335 161,46.5641904 L161,46.5641904 Z M147.421092,42.1109508 C146.473732,42.1109508 145.666812,42.445312 145.01746,42.973367 L145.01746,42.2867236 L142.824977,42.2867236 L142.824977,50.8239817 L145.105296,50.8239817 L145.105296,45.279281 C145.421164,44.8393579 146.210468,44.2231709 147.175444,44.2231709 C147.701728,44.2231709 148.157792,44.3991893 148.456044,44.698445 C148.771912,45.0153762 148.964711,45.4552994 148.964711,46.3002856 L148.964711,50.8239817 L151.24552,50.8239817 L151.24552,46.476304 C151.24552,45.0153762 150.929896,44.1527145 150.36838,43.4837466 C149.666423,42.6390058 148.596239,42.1109508 147.421092,42.1109508 L147.421092,42.1109508 Z M138.964828,47.8314243 C138.64896,48.2364874 137.947248,48.8877798 136.982516,48.8877798 C136.544069,48.8877798 136.052772,48.746867 135.701672,48.3597248 C135.438652,48.0604691 135.28084,47.6730814 135.28084,46.8987971 L135.28084,42.2867236 L133.000032,42.2867236 L133.000032,46.8106652 C133.000032,48.0778991 133.3159,48.9579908 133.8598,49.6269587 C134.526525,50.4542695 135.578848,51 136.754484,51 C137.57902,51 138.38594,50.7358497 139.052664,50.1375838 L139.052664,50.8239817 L141.245391,50.8239817 L141.245391,42.2867236 L138.964828,42.2867236 L138.964828,47.8314243 Z M130.017512,46.5641904 C130.017512,45.279281 129.10514,44.2231709 127.771936,44.2231709 C126.438732,44.2231709 125.52636,45.279281 125.52636,46.5641904 C125.52636,47.8493453 126.438732,48.8877798 127.771936,48.8877798 C129.10514,48.8877798 130.017512,47.8493453 130.017512,46.5641904 L130.017512,46.5641904 Z M132.297831,46.5641904 C132.297831,49.0284472 130.350752,51 127.771936,51 C125.19312,51 123.245796,49.0284472 123.245796,46.5641904 C123.245796,44.0999335 125.19312,42.1109508 127.771936,42.1109508 C130.350752,42.1109508 132.297831,44.0999335 132.297831,46.5641904 L132.297831,46.5641904 Z M122.736639,42.1109508 C121.701688,42.1109508 120.771944,42.5157684 120.263032,43.1493854 L120.263032,42.2867236 L118.070304,42.2867236 L118.070304,50.8239817 L120.350623,50.8239817 L120.350623,45.4552994 C120.631504,44.9449198 121.420807,44.2231709 122.420771,44.2231709 C122.754011,44.2231709 123.087495,44.2585219 123.245307,44.3113028 L123.508327,42.1814072 C123.262923,42.1460562 123.069879,42.1109508 122.736639,42.1109508 L122.736639,42.1109508 Z M114.859508,45.4552994 C114.789287,44.698445 114.105192,43.9590207 113.175203,43.9590207 C112.228088,43.9590207 111.456156,44.6807695 111.350704,45.4552994 L114.859508,45.4552994 Z M117.192675,46.476304 C117.192675,46.7048578 117.175304,46.9339026 117.140071,47.1273509 L111.245496,47.1273509 C111.36832,48.3243738 112.333296,49.1516846 113.543675,49.1516846 C114.508407,49.1516846 115.280339,48.6061996 115.684044,48.166031 L116.982259,49.4686158 C116.157479,50.4542695 114.806904,51 113.491072,51 C110.947244,51 109.035152,49.2398165 109.035152,46.5641904 C109.035152,44.1880655 110.649236,42.1109508 113.175203,42.1109508 C115.525987,42.1109508 117.192675,44.0999335 117.192675,46.476304 L117.192675,46.476304 Z M107.280383,47.7612133 L109.034663,49.0812282 C108.034699,50.4189185 106.771715,51 105.175247,51 C102.543828,51 100.61412,49.0284472 100.61412,46.5641904 C100.61412,44.0822581 102.596432,42.1109508 105.192864,42.1109508 C106.666263,42.1109508 107.982095,42.7973487 108.771643,43.8183533 L107.157559,45.24393 C106.701495,44.6456641 106.0174,44.2231709 105.192864,44.2231709 C103.877032,44.2231709 102.894684,45.261851 102.894684,46.5641904 C102.894684,47.9018807 103.85966,48.8877798 105.245468,48.8877798 C106.175211,48.8877798 106.911911,48.3243738 107.280383,47.7612133 L107.280383,47.7612133 Z" id="Fill-1-Copy"></path>
        </g>
    </g>
</svg>