<?xml version="1.0" encoding="UTF-8"?>
<svg width="92px" height="92px" viewBox="0 0 92 92" version="1.1" xmlns="http://www.w3.org/2000/svg" xmlns:xlink="http://www.w3.org/1999/xlink">
    <!-- Generator: Sketch 49.1 (51147) - http://www.bohemiancoding.com/sketch -->
    <title>Group 5</title>
    <desc>Created with Sketch.</desc>
    <defs></defs>
    <g id="Page-1" stroke="none" stroke-width="1" fill="none" fill-rule="evenodd">
        <g id="Programa" transform="translate(-914.000000, -1482.000000)">
            <g id="Group-4" transform="translate(914.000000, 1482.000000)">
                <g id="Group-5">
                    <rect id="Rectangle-5" fill="#FF4F23" x="0" y="0" width="92" height="92"></rect>
                    <path d="M34.7655454,62.9995694 C34.6429395,62.9995694 34.5188369,62.969802 34.406696,62.9102662 C34.1569981,62.7778012 34,62.5188455 34,62.2375393 L34,30.7619504 C34,30.4806518 34.1555014,30.2216656 34.406696,30.0892234 C34.656394,29.9567584 34.9599174,29.9731308 35.1946719,30.1294095 L58.6620844,45.8673945 C58.872908,46.0087868 59,46.2454376 59,46.499962 C59,46.7529814 58.872908,46.9896475 58.6620844,47.1325296 L35.1935236,62.8705145 C35.0649349,62.9568382 34.9154163,63 34.7658899,63 L34.7655454,62.9995694 Z" id="Page-1" fill="#FFFFFF"></path>
                </g>
            </g>
        </g>
    </g>
</svg>