<?xml version="1.0" encoding="UTF-8"?>
<svg width="260px" height="260px" viewBox="0 0 260 260" version="1.1" xmlns="http://www.w3.org/2000/svg" xmlns:xlink="http://www.w3.org/1999/xlink">
    <!-- Generator: Sketch 49 (51002) - http://www.bohemiancoding.com/sketch -->
    <title>Page 1</title>
    <desc>Created with Sketch.</desc>
    <defs>
        <path d="M38.2869461,38.2319361 C-12.3793214,88.8987226 -12.3793214,171.045749 38.2869461,221.712535 C88.9542515,272.37984 171.101277,272.37984 221.767545,221.712535 C272.43485,171.045749 272.43485,88.8987226 221.767545,38.2319361 C196.434411,12.8982834 163.231218,0.231457086 130.028024,0.231457086 C96.8243114,0.231457086 63.6205988,12.8982834 38.2869461,38.2319361 Z" id="path-1"></path>
        <path d="M38.2869461,38.2319361 C-12.3793214,88.8987226 -12.3793214,171.045749 38.2869461,221.712535 C88.9542515,272.37984 171.101277,272.37984 221.767545,221.712535 C272.43485,171.045749 272.43485,88.8987226 221.767545,38.2319361 C196.434411,12.8982834 163.231218,0.231457086 130.028024,0.231457086 C96.8243114,0.231457086 63.6205988,12.8982834 38.2869461,38.2319361 Z" id="path-3"></path>
        <path d="M38.2869461,38.2319361 C-12.3793214,88.8987226 -12.3793214,171.045749 38.2869461,221.712535 C88.9542515,272.37984 171.101277,272.37984 221.767545,221.712535 C272.43485,171.045749 272.43485,88.8987226 221.767545,38.2319361 C196.434411,12.8982834 163.231218,0.231457086 130.028024,0.231457086 C96.8243114,0.231457086 63.6205988,12.8982834 38.2869461,38.2319361 Z" id="path-5"></path>
        <path d="M38.2869461,38.2319361 C-12.3793214,88.8987226 -12.3793214,171.045749 38.2869461,221.712535 C88.9542515,272.37984 171.101277,272.37984 221.767545,221.712535 C272.43485,171.045749 272.43485,88.8987226 221.767545,38.2319361 C196.434411,12.8982834 163.231218,0.231457086 130.028024,0.231457086 C96.8243114,0.231457086 63.6205988,12.8982834 38.2869461,38.2319361 Z" id="path-7"></path>
        <path d="M38.2869461,38.2319361 C-12.3793214,88.8987226 -12.3793214,171.045749 38.2869461,221.712535 C88.9542515,272.37984 171.101277,272.37984 221.767545,221.712535 C272.43485,171.045749 272.43485,88.8987226 221.767545,38.2319361 C196.434411,12.8982834 163.231218,0.231457086 130.028024,0.231457086 C96.8243114,0.231457086 63.6205988,12.8982834 38.2869461,38.2319361 Z" id="path-9"></path>
        <path d="M38.2869461,38.2319361 C-12.3793214,88.8987226 -12.3793214,171.045749 38.2869461,221.712535 C88.9542515,272.37984 171.101277,272.37984 221.767545,221.712535 C272.43485,171.045749 272.43485,88.8987226 221.767545,38.2319361 C196.434411,12.8982834 163.231218,0.231457086 130.028024,0.231457086 C96.8243114,0.231457086 63.6205988,12.8982834 38.2869461,38.2319361 Z" id="path-11"></path>
        <path d="M38.2869461,38.2319361 C-12.3793214,88.8987226 -12.3793214,171.045749 38.2869461,221.712535 C88.9542515,272.37984 171.101277,272.37984 221.767545,221.712535 C272.43485,171.045749 272.43485,88.8987226 221.767545,38.2319361 C196.434411,12.8982834 163.231218,0.231457086 130.028024,0.231457086 C96.8243114,0.231457086 63.6205988,12.8982834 38.2869461,38.2319361 Z" id="path-13"></path>
        <path d="M38.2869461,38.2319361 C-12.3793214,88.8987226 -12.3793214,171.045749 38.2869461,221.712535 C88.9542515,272.37984 171.101277,272.37984 221.767545,221.712535 C272.43485,171.045749 272.43485,88.8987226 221.767545,38.2319361 C196.434411,12.8982834 163.231218,0.231457086 130.028024,0.231457086 C96.8243114,0.231457086 63.6205988,12.8982834 38.2869461,38.2319361 Z" id="path-15"></path>
        <path d="M38.2869461,38.2319361 C-12.3793214,88.8987226 -12.3793214,171.045749 38.2869461,221.712535 C88.9542515,272.37984 171.101277,272.37984 221.767545,221.712535 C272.43485,171.045749 272.43485,88.8987226 221.767545,38.2319361 C196.434411,12.8982834 163.231218,0.231457086 130.028024,0.231457086 C96.8243114,0.231457086 63.6205988,12.8982834 38.2869461,38.2319361 Z" id="path-17"></path>
        <path d="M38.2869461,38.2319361 C-12.3793214,88.8987226 -12.3793214,171.045749 38.2869461,221.712535 C88.9542515,272.37984 171.101277,272.37984 221.767545,221.712535 C272.43485,171.045749 272.43485,88.8987226 221.767545,38.2319361 C196.434411,12.8982834 163.231218,0.231457086 130.028024,0.231457086 C96.8243114,0.231457086 63.6205988,12.8982834 38.2869461,38.2319361 Z" id="path-19"></path>
        <path d="M38.2869461,38.2319361 C-12.3793214,88.8987226 -12.3793214,171.045749 38.2869461,221.712535 C88.9542515,272.37984 171.101277,272.37984 221.767545,221.712535 C272.43485,171.045749 272.43485,88.8987226 221.767545,38.2319361 C196.434411,12.8982834 163.231218,0.231457086 130.028024,0.231457086 C96.8243114,0.231457086 63.6205988,12.8982834 38.2869461,38.2319361 Z" id="path-21"></path>
        <path d="M38.2869461,38.2319361 C-12.3793214,88.8987226 -12.3793214,171.045749 38.2869461,221.712535 C88.9542515,272.37984 171.101277,272.37984 221.767545,221.712535 C272.43485,171.045749 272.43485,88.8987226 221.767545,38.2319361 C196.434411,12.8982834 163.231218,0.231457086 130.028024,0.231457086 C96.8243114,0.231457086 63.6205988,12.8982834 38.2869461,38.2319361 Z" id="path-23"></path>
        <path d="M38.2869461,38.2319361 C-12.3793214,88.8987226 -12.3793214,171.045749 38.2869461,221.712535 C88.9542515,272.37984 171.101277,272.37984 221.767545,221.712535 C272.43485,171.045749 272.43485,88.8987226 221.767545,38.2319361 C196.434411,12.8982834 163.231218,0.231457086 130.028024,0.231457086 C96.8243114,0.231457086 63.6205988,12.8982834 38.2869461,38.2319361 Z" id="path-25"></path>
        <path d="M38.2869461,38.2319361 C-12.3793214,88.8987226 -12.3793214,171.045749 38.2869461,221.712535 C88.9542515,272.37984 171.101277,272.37984 221.767545,221.712535 C272.43485,171.045749 272.43485,88.8987226 221.767545,38.2319361 C196.434411,12.8982834 163.231218,0.231457086 130.028024,0.231457086 C96.8243114,0.231457086 63.6205988,12.8982834 38.2869461,38.2319361 Z" id="path-27"></path>
        <path d="M38.2869461,38.2319361 C-12.3793214,88.8987226 -12.3793214,171.045749 38.2869461,221.712535 C88.9542515,272.37984 171.101277,272.37984 221.767545,221.712535 C272.43485,171.045749 272.43485,88.8987226 221.767545,38.2319361 C196.434411,12.8982834 163.231218,0.231457086 130.028024,0.231457086 C96.8243114,0.231457086 63.6205988,12.8982834 38.2869461,38.2319361 Z" id="path-29"></path>
        <path d="M38.2869461,38.2319361 C-12.3793214,88.8987226 -12.3793214,171.045749 38.2869461,221.712535 C88.9542515,272.37984 171.101277,272.37984 221.767545,221.712535 C272.43485,171.045749 272.43485,88.8987226 221.767545,38.2319361 C196.434411,12.8982834 163.231218,0.231457086 130.028024,0.231457086 C96.8243114,0.231457086 63.6205988,12.8982834 38.2869461,38.2319361 Z" id="path-31"></path>
        <path d="M38.2869461,38.2319361 C-12.3793214,88.8987226 -12.3793214,171.045749 38.2869461,221.712535 C88.9542515,272.37984 171.101277,272.37984 221.767545,221.712535 C272.43485,171.045749 272.43485,88.8987226 221.767545,38.2319361 C196.434411,12.8982834 163.231218,0.231457086 130.028024,0.231457086 C96.8243114,0.231457086 63.6205988,12.8982834 38.2869461,38.2319361 Z" id="path-33"></path>
        <path d="M38.2869461,38.2319361 C-12.3793214,88.8987226 -12.3793214,171.045749 38.2869461,221.712535 C88.9542515,272.37984 171.101277,272.37984 221.767545,221.712535 C272.43485,171.045749 272.43485,88.8987226 221.767545,38.2319361 C196.434411,12.8982834 163.231218,0.231457086 130.028024,0.231457086 C96.8243114,0.231457086 63.6205988,12.8982834 38.2869461,38.2319361 Z" id="path-35"></path>
        <path d="M38.2869461,38.2319361 C-12.3793214,88.8987226 -12.3793214,171.045749 38.2869461,221.712535 C88.9542515,272.37984 171.101277,272.37984 221.767545,221.712535 C272.43485,171.045749 272.43485,88.8987226 221.767545,38.2319361 C196.434411,12.8982834 163.231218,0.231457086 130.028024,0.231457086 C96.8243114,0.231457086 63.6205988,12.8982834 38.2869461,38.2319361 Z" id="path-37"></path>
        <path d="M38.2869461,38.2319361 C-12.3793214,88.8987226 -12.3793214,171.045749 38.2869461,221.712535 C88.9542515,272.37984 171.101277,272.37984 221.767545,221.712535 C272.43485,171.045749 272.43485,88.8987226 221.767545,38.2319361 C196.434411,12.8982834 163.231218,0.231457086 130.028024,0.231457086 C96.8243114,0.231457086 63.6205988,12.8982834 38.2869461,38.2319361 Z" id="path-39"></path>
    </defs>
    <g id="Page-1" stroke="none" stroke-width="1" fill="none" fill-rule="evenodd">
        <g id="Landing" transform="translate(-320.000000, -1191.000000)">
            <g id="Page-1" transform="translate(320.000000, 1191.000000)">
                <g id="Group-3">
                    <mask id="mask-2" fill="white">
                        <use xlink:href="#path-1"></use>
                    </mask>
                    <g id="Clip-2"></g>
                    <polygon id="Fill-1" fill="#FFFFFF" mask="url(#mask-2)" points="-50.1504711 133.275118 -53.4531457 129.972443 130.027453 -53.5081557 133.330128 -50.206"></polygon>
                </g>
                <g id="Group-6">
                    <mask id="mask-4" fill="white">
                        <use xlink:href="#path-3"></use>
                    </mask>
                    <g id="Clip-5"></g>
                    <polygon id="Fill-4" fill="#FFFFFF" mask="url(#mask-4)" points="142.813226 -40.7229022 -40.6673733 142.757697 -43.9700479 139.455541 139.510551 -44.0255768"></polygon>
                </g>
                <g id="Group-9">
                    <mask id="mask-6" fill="white">
                        <use xlink:href="#path-5"></use>
                    </mask>
                    <g id="Clip-8"></g>
                    <polygon id="Fill-7" fill="#FFFFFF" mask="url(#mask-6)" points="152.296479 -31.2397006 -31.1841198 152.240898 -34.4867944 148.938224 148.993804 -34.5423752"></polygon>
                </g>
                <g id="Group-12">
                    <mask id="mask-8" fill="white">
                        <use xlink:href="#path-7"></use>
                    </mask>
                    <g id="Clip-11"></g>
                    <polygon id="Fill-10" fill="#FFFFFF" mask="url(#mask-8)" points="161.779681 -21.7567066 -21.7014371 161.724411 -25.0035928 158.421218 158.477006 -25.0593812"></polygon>
                </g>
                <g id="Group-15">
                    <mask id="mask-10" fill="white">
                        <use xlink:href="#path-9"></use>
                    </mask>
                    <g id="Clip-14"></g>
                    <polygon id="Fill-13" fill="#FFFFFF" mask="url(#mask-10)" points="171.262415 -12.273505 -12.2181836 171.207094 -15.5208583 167.904419 167.960259 -15.5761796"></polygon>
                </g>
                <g id="Group-18">
                    <mask id="mask-12" fill="white">
                        <use xlink:href="#path-11"></use>
                    </mask>
                    <g id="Clip-17"></g>
                    <polygon id="Fill-16" fill="#FFFFFF" mask="url(#mask-12)" points="180.745617 -2.79051098 -2.73498204 180.690088 -6.03765669 177.387413 177.442942 -6.09318563"></polygon>
                </g>
                <g id="Group-21">
                    <mask id="mask-14" fill="white">
                        <use xlink:href="#path-13"></use>
                    </mask>
                    <g id="Clip-20"></g>
                    <polygon id="Fill-19" fill="#FFFFFF" mask="url(#mask-14)" points="190.228818 6.69243114 6.7477006 190.173549 3.44554491 186.870355 186.926144 3.38975649"></polygon>
                </g>
                <g id="Group-24">
                    <mask id="mask-16" fill="white">
                        <use xlink:href="#path-15"></use>
                    </mask>
                    <g id="Clip-23"></g>
                    <polygon id="Fill-22" fill="#FFFFFF" mask="url(#mask-16)" points="199.711553 16.1756846 16.2309541 199.656283 12.9282794 196.353609 196.409397 12.87301"></polygon>
                </g>
                <g id="Group-27">
                    <mask id="mask-18" fill="white">
                        <use xlink:href="#path-17"></use>
                    </mask>
                    <g id="Clip-26"></g>
                    <polygon id="Fill-25" fill="#FFFFFF" mask="url(#mask-18)" points="209.194754 25.6586267 25.7141557 209.139226 22.411481 205.836551 205.89208 22.3559521"></polygon>
                </g>
                <g id="Group-30">
                    <mask id="mask-20" fill="white">
                        <use xlink:href="#path-19"></use>
                    </mask>
                    <g id="Clip-29"></g>
                    <polygon id="Fill-28" fill="#FFFFFF" mask="url(#mask-20)" points="218.678008 35.1415689 35.1968902 218.622687 31.8947345 215.319493 215.375333 31.8388942"></polygon>
                </g>
                <g id="Group-33">
                    <mask id="mask-22" fill="white">
                        <use xlink:href="#path-21"></use>
                    </mask>
                    <g id="Clip-32"></g>
                    <polygon id="Fill-31" fill="#FFFFFF" mask="url(#mask-22)" points="228.16121 44.6248224 44.6800918 228.10594 41.3774172 224.802747 224.858535 41.3221477"></polygon>
                </g>
                <g id="Group-36">
                    <mask id="mask-24" fill="white">
                        <use xlink:href="#path-23"></use>
                    </mask>
                    <g id="Clip-35"></g>
                    <polygon id="Fill-34" fill="#FFFFFF" mask="url(#mask-24)" points="237.643944 54.108024 54.1633453 237.588623 50.8606707 234.285948 234.341788 50.8053493"></polygon>
                </g>
                <g id="Group-39">
                    <mask id="mask-26" fill="white">
                        <use xlink:href="#path-25"></use>
                    </mask>
                    <g id="Clip-38"></g>
                    <polygon id="Fill-37" fill="#FFFFFF" mask="url(#mask-26)" points="247.127146 63.5907585 63.6460279 247.071876 60.3438723 243.768683 243.824471 60.2886028"></polygon>
                </g>
                <g id="Group-42">
                    <mask id="mask-28" fill="white">
                        <use xlink:href="#path-27"></use>
                    </mask>
                    <g id="Clip-41"></g>
                    <polygon id="Fill-40" fill="#FFFFFF" mask="url(#mask-28)" points="256.610347 73.0739601 73.1292295 256.555078 69.8265549 253.251884 253.307673 69.7712854"></polygon>
                </g>
                <g id="Group-45">
                    <mask id="mask-30" fill="white">
                        <use xlink:href="#path-29"></use>
                    </mask>
                    <g id="Clip-44"></g>
                    <polygon id="Fill-43" fill="#FFFFFF" mask="url(#mask-30)" points="266.093082 82.5572136 82.612483 266.037812 79.3098084 262.735138 262.790926 79.2545389"></polygon>
                </g>
                <g id="Group-48">
                    <mask id="mask-32" fill="white">
                        <use xlink:href="#path-31"></use>
                    </mask>
                    <g id="Clip-47"></g>
                    <polygon id="Fill-46" fill="#FFFFFF" mask="url(#mask-32)" points="275.576283 92.0398962 92.0956846 275.521014 88.79301 272.21782 272.273609 88.7377405"></polygon>
                </g>
                <g id="Group-51">
                    <mask id="mask-34" fill="white">
                        <use xlink:href="#path-33"></use>
                    </mask>
                    <g id="Clip-50"></g>
                    <polygon id="Fill-49" fill="#FFFFFF" mask="url(#mask-34)" points="285.059537 101.52315 101.578419 285.004267 98.2762635 281.701074 281.756862 98.220475"></polygon>
                </g>
                <g id="Group-54">
                    <mask id="mask-36" fill="white">
                        <use xlink:href="#path-35"></use>
                    </mask>
                    <g id="Clip-53"></g>
                    <polygon id="Fill-52" fill="#FFFFFF" mask="url(#mask-36)" points="294.54222 111.006351 111.061621 294.48695 107.758946 291.184275 291.240064 107.703677"></polygon>
                </g>
                <g id="Group-57">
                    <mask id="mask-38" fill="white">
                        <use xlink:href="#path-37"></use>
                    </mask>
                    <g id="Clip-56"></g>
                    <polygon id="Fill-55" fill="#FFFFFF" mask="url(#mask-38)" points="304.025473 120.489086 120.544874 303.970204 117.2422 300.66701 300.722798 117.18693"></polygon>
                </g>
                <g id="Group-60">
                    <mask id="mask-40" fill="white">
                        <use xlink:href="#path-39"></use>
                    </mask>
                    <g id="Clip-59"></g>
                    <polygon id="Fill-58" fill="#FFFFFF" mask="url(#mask-40)" points="130.027713 313.45325 126.725038 310.150575 310.205637 126.669457 313.50883 129.972132"></polygon>
                </g>
            </g>
        </g>
    </g>
</svg>