<?xml version="1.0" encoding="UTF-8"?>
<svg width="125px" height="329px" viewBox="0 0 125 329" version="1.1" xmlns="http://www.w3.org/2000/svg" xmlns:xlink="http://www.w3.org/1999/xlink">
    <!-- Generator: Sketch 49 (51002) - http://www.bohemiancoding.com/sketch -->
    <title>Page 1</title>
    <desc>Created with Sketch.</desc>
    <defs>
        <polygon id="path-1" points="0.363901961 0.292202335 66.9460716 0.292202335 66.9460716 167.876386 0.363901961 167.876386"></polygon>
        <polygon id="path-3" points="0.361702479 0.293141304 78.4712223 0.293141304 78.4712223 180.3987 0.361702479 180.3987"></polygon>
        <polygon id="path-5" points="0.362690647 0.293438776 90.6488317 0.293438776 90.6488317 192.577566 0.362690647 192.577566"></polygon>
        <polygon id="path-7" points="0.363452229 0.292269231 102.827459 0.292269231 102.827459 203.758404 0.363452229 203.758404"></polygon>
        <polygon id="path-9" points="0.361988636 0.292581818 114.352798 0.292581818 114.352798 215.936444 0.361988636 215.936444"></polygon>
        <polygon id="path-11" points="0.362565445 0.293303725 124.708115 0.293303725 124.708115 228.459258 0.362565445 228.459258"></polygon>
        <polygon id="path-13" points="0.362565445 0.349131856 124.708115 0.349131856 124.708115 236.638788 0.362565445 236.638788"></polygon>
        <polygon id="path-15" points="0.362565445 0.528687258 124.708115 0.528687258 124.708115 236.817687 0.362565445 236.817687"></polygon>
        <polygon id="path-17" points="0.362565445 0.0515922222 124.708115 0.0515922222 124.708115 235.997181 0.362565445 235.997181"></polygon>
        <polygon id="path-19" points="0.362565445 0.230500554 124.708115 0.230500554 124.708115 236.520157 0.362565445 236.520157"></polygon>
        <polygon id="path-21" points="0.362565445 0.410055956 124.708115 0.410055956 124.708115 236.699712 0.362565445 236.699712"></polygon>
        <polygon id="path-23" points="0.362565445 0.589545706 124.708115 0.589545706 124.708115 236.878546 0.362565445 236.878546"></polygon>
        <polygon id="path-25" points="0.362565445 0.112591413 124.708115 0.112591413 124.708115 236.401591 0.362565445 236.401591"></polygon>
        <polygon id="path-27" points="0.362565445 0.291424654 124.708115 0.291424654 124.708115 236.581081 0.362565445 236.581081"></polygon>
        <polygon id="path-29" points="0.362565445 0.470729513 124.708115 0.470729513 124.708115 228.637143 0.362565445 228.637143"></polygon>
        <polygon id="path-31" points="0.06394 0.649557704 114.706914 0.649557704 114.706914 216.637459 0.06394 216.637459"></polygon>
        <polygon id="path-33" points="0.242607643 0.172157692 102.707401 0.172157692 102.707401 203.638423 0.242607643 203.638423"></polygon>
        <polygon id="path-35" points="0.42108777 0.352323469 90.7080144 0.352323469 90.7080144 192.636976 0.42108777 192.636976"></polygon>
        <polygon id="path-37" points="0.598506612 0.531326812 78.7088099 0.531326812 78.7088099 180.637344 0.598506612 180.637344"></polygon>
        <polygon id="path-39" points="0.124409804 0.0537992218 66.7070392 0.0537992218 66.7070392 167.638506 0.124409804 167.638506"></polygon>
    </defs>
    <g id="Page-1" stroke="none" stroke-width="1" fill="none" fill-rule="evenodd">
        <g id="Landing" transform="translate(-757.000000, -1657.000000)">
            <g id="Page-1" transform="translate(757.000000, 1657.000000)">
                <g id="Group-3">
                    <mask id="mask-2" fill="white">
                        <use xlink:href="#path-1"></use>
                    </mask>
                    <g id="Clip-2"></g>
                    <polygon id="Fill-1" fill="#FFFFFF" mask="url(#mask-2)" points="-165.290379 167.876386 -169.470654 163.716261 62.7651402 -67.4000965 66.9460716 -63.2406257"></polygon>
                </g>
                <g id="Group-6">
                    <mask id="mask-4" fill="white">
                        <use xlink:href="#path-3"></use>
                    </mask>
                    <g id="Clip-5"></g>
                    <polygon id="Fill-4" fill="#FFFFFF" mask="url(#mask-4)" points="78.4712223 -51.460333 -152.360902 180.3987 -156.51591 176.225863 74.3168669 -55.6338257"></polygon>
                </g>
                <g id="Group-9">
                    <mask id="mask-6" fill="white">
                        <use xlink:href="#path-5"></use>
                    </mask>
                    <g id="Clip-8"></g>
                    <polygon id="Fill-7" fill="#FFFFFF" mask="url(#mask-6)" points="90.6488317 -39.51675 -140.814578 192.577566 -144.980283 188.399838 86.4824719 -43.6944779"></polygon>
                </g>
                <g id="Group-12">
                    <mask id="mask-8" fill="white">
                        <use xlink:href="#path-7"></use>
                    </mask>
                    <g id="Clip-11"></g>
                    <polygon id="Fill-10" fill="#FFFFFF" mask="url(#mask-8)" points="102.827459 -27.4115192 -129.121981 203.758404 -133.297089 199.596673 98.6523503 -31.5725962"></polygon>
                </g>
                <g id="Group-15">
                    <mask id="mask-10" fill="white">
                        <use xlink:href="#path-9"></use>
                    </mask>
                    <g id="Clip-14"></g>
                    <polygon id="Fill-13" fill="#FFFFFF" mask="url(#mask-10)" points="114.352798 -15.4800655 -116.661946 215.936444 -120.820241 211.770916 110.195156 -19.6455927"></polygon>
                </g>
                <g id="Group-18">
                    <mask id="mask-12" fill="white">
                        <use xlink:href="#path-11"></use>
                    </mask>
                    <g id="Clip-17"></g>
                    <polygon id="Fill-16" fill="#FFFFFF" mask="url(#mask-12)" points="126.494045 -3.5282404 -104.889463 228.459258 -109.05373 224.283453 122.329123 -7.70404556"></polygon>
                </g>
                <g id="Group-21" transform="translate(0.000000, 4.000000)">
                    <mask id="mask-14" fill="white">
                        <use xlink:href="#path-13"></use>
                    </mask>
                    <g id="Clip-20"></g>
                    <polygon id="Fill-19" fill="#FFFFFF" mask="url(#mask-14)" points="138.453076 4.52715956 -92.9304319 236.638788 -97.0953534 232.460104 134.288154 0.349131856"></polygon>
                </g>
                <g id="Group-24" transform="translate(0.000000, 16.000000)">
                    <mask id="mask-16" fill="white">
                        <use xlink:href="#path-15"></use>
                    </mask>
                    <g id="Clip-23"></g>
                    <polygon id="Fill-22" fill="#FFFFFF" mask="url(#mask-16)" points="150.411518 4.70671496 -80.9713351 236.817687 -85.1362565 232.63966 146.247251 0.528687258"></polygon>
                </g>
                <g id="Group-27" transform="translate(0.000000, 28.000000)">
                    <mask id="mask-18" fill="white">
                        <use xlink:href="#path-17"></use>
                    </mask>
                    <g id="Clip-26"></g>
                    <polygon id="Fill-25" fill="#FFFFFF" mask="url(#mask-18)" points="162.37055 4.22289222 -69.0129581 235.997181 -73.1772251 231.82457 158.205628 0.0515922222"></polygon>
                </g>
                <g id="Group-30" transform="translate(0.000000, 40.000000)">
                    <mask id="mask-20" fill="white">
                        <use xlink:href="#path-19"></use>
                    </mask>
                    <g id="Clip-29"></g>
                    <polygon id="Fill-28" fill="#FFFFFF" mask="url(#mask-20)" points="174.329647 4.40852825 -57.0538613 236.520157 -61.2187827 232.341473 170.164725 0.230500554"></polygon>
                </g>
                <g id="Group-33" transform="translate(0.000000, 52.000000)">
                    <mask id="mask-22" fill="white">
                        <use xlink:href="#path-21"></use>
                    </mask>
                    <g id="Clip-32"></g>
                    <polygon id="Fill-31" fill="#FFFFFF" mask="url(#mask-22)" points="186.288678 4.58808366 -45.0948298 236.699712 -49.2597513 232.521028 182.123757 0.410055956"></polygon>
                </g>
                <g id="Group-36" transform="translate(0.000000, 64.000000)">
                    <mask id="mask-24" fill="white">
                        <use xlink:href="#path-23"></use>
                    </mask>
                    <g id="Clip-35"></g>
                    <polygon id="Fill-34" fill="#FFFFFF" mask="url(#mask-24)" points="198.24712 4.76757341 -33.135733 236.878546 -37.3006545 232.700518 194.082853 0.589545706"></polygon>
                </g>
                <g id="Group-39" transform="translate(0.000000, 76.000000)">
                    <mask id="mask-26" fill="white">
                        <use xlink:href="#path-25"></use>
                    </mask>
                    <g id="Clip-38"></g>
                    <polygon id="Fill-37" fill="#FFFFFF" mask="url(#mask-26)" points="210.206152 4.2899626 -21.177356 236.401591 -25.341623 232.222907 206.04123 0.112591413"></polygon>
                </g>
                <g id="Group-42" transform="translate(0.000000, 88.000000)">
                    <mask id="mask-28" fill="white">
                        <use xlink:href="#path-27"></use>
                    </mask>
                    <g id="Clip-41"></g>
                    <polygon id="Fill-40" fill="#FFFFFF" mask="url(#mask-28)" points="222.165183 4.46945235 -9.21832461 236.581081 -13.3832461 232.402397 218.000262 0.291424654"></polygon>
                </g>
                <g id="Group-45" transform="translate(0.000000, 100.000000)">
                    <mask id="mask-30" fill="white">
                        <use xlink:href="#path-29"></use>
                    </mask>
                    <g id="Clip-44"></g>
                    <polygon id="Fill-43" fill="#FFFFFF" mask="url(#mask-30)" points="234.123626 4.64653467 2.74077225 236.634033 -1.42414921 232.458228 229.959359 0.470729513"></polygon>
                </g>
                <g id="Group-48" transform="translate(10.000000, 111.000000)">
                    <mask id="mask-32" fill="white">
                        <use xlink:href="#path-31"></use>
                    </mask>
                    <g id="Clip-47"></g>
                    <polygon id="Fill-46" fill="#FFFFFF" mask="url(#mask-32)" points="236.580826 4.8210713 4.24534 236.607228 0.06394 232.434404 232.398769 0.649557704"></polygon>
                </g>
                <g id="Group-51" transform="translate(22.000000, 124.000000)">
                    <mask id="mask-34" fill="white">
                        <use xlink:href="#path-33"></use>
                    </mask>
                    <g id="Clip-50"></g>
                    <polygon id="Fill-49" fill="#FFFFFF" mask="url(#mask-34)" points="236.367155 4.33323462 4.41771592 235.503158 0.242607643 231.341427 232.192047 0.172157692"></polygon>
                </g>
                <g id="Group-54" transform="translate(34.000000, 136.000000)">
                    <mask id="mask-36" fill="white">
                        <use xlink:href="#path-35"></use>
                    </mask>
                    <g id="Clip-53"></g>
                    <polygon id="Fill-52" fill="#FFFFFF" mask="url(#mask-36)" points="236.050203 4.53005136 4.58744748 236.624368 0.42108777 232.44664 231.884498 0.352323469"></polygon>
                </g>
                <g id="Group-57" transform="translate(46.000000, 148.000000)">
                    <mask id="mask-38" fill="white">
                        <use xlink:href="#path-37"></use>
                    </mask>
                    <g id="Clip-56"></g>
                    <polygon id="Fill-55" fill="#FFFFFF" mask="url(#mask-38)" points="235.585639 4.70416377 4.75286198 236.563852 0.598506612 232.389704 231.430631 0.531326812"></polygon>
                </g>
                <g id="Group-60" transform="translate(58.000000, 160.000000)">
                    <mask id="mask-40" fill="white">
                        <use xlink:href="#path-39"></use>
                    </mask>
                    <g id="Clip-59"></g>
                    <polygon id="Fill-58" fill="#FFFFFF" mask="url(#mask-40)" points="4.30468431 235.330935 0.124409804 231.170811 232.360204 0.0537992218 236.541135 4.21392374"></polygon>
                </g>
            </g>
        </g>
    </g>
</svg>