<?xml version="1.0" encoding="UTF-8" standalone="no"?>
<svg width="326px" height="223px" viewBox="0 0 326 223" version="1.1" xmlns="http://www.w3.org/2000/svg" xmlns:xlink="http://www.w3.org/1999/xlink">
    <!-- Generator: Sketch 46.2 (44496) - http://www.bohemiancoding.com/sketch -->
    <title>Group 4</title>
    <desc>Created with Sketch.</desc>
    <defs>
        <path d="M34.605509,32.7912375 C-11.189002,76.2477505 -11.189002,146.704623 34.605509,190.161136 L34.605509,190.161136 C80.4009581,233.618094 154.649232,233.618094 200.443743,190.161136 L200.443743,190.161136 C246.239192,146.704623 246.239192,76.2477505 200.443743,32.7912375 L200.443743,32.7912375 C177.546487,11.0627585 147.535908,0.198518962 117.525329,0.198518962 L117.525329,0.198518962 C87.5142814,0.198518962 57.5032335,11.0627585 34.605509,32.7912375 L34.605509,32.7912375 Z" id="path-1"></path>
        <path d="M34.605509,32.7912375 C-11.189002,76.2477505 -11.189002,146.704623 34.605509,190.161136 L34.605509,190.161136 C80.4009581,233.618094 154.649232,233.618094 200.443743,190.161136 L200.443743,190.161136 C246.239192,146.704623 246.239192,76.2477505 200.443743,32.7912375 L200.443743,32.7912375 C177.546487,11.0627585 147.535908,0.198518962 117.525329,0.198518962 L117.525329,0.198518962 C87.5142814,0.198518962 57.5032335,11.0627585 34.605509,32.7912375 L34.605509,32.7912375 Z" id="path-3"></path>
        <path d="M34.605509,32.7912375 C-11.189002,76.2477505 -11.189002,146.704623 34.605509,190.161136 L34.605509,190.161136 C80.4009581,233.618094 154.649232,233.618094 200.443743,190.161136 L200.443743,190.161136 C246.239192,146.704623 246.239192,76.2477505 200.443743,32.7912375 L200.443743,32.7912375 C177.546487,11.0627585 147.535908,0.198518962 117.525329,0.198518962 L117.525329,0.198518962 C87.5142814,0.198518962 57.5032335,11.0627585 34.605509,32.7912375 L34.605509,32.7912375 Z" id="path-5"></path>
        <path d="M34.605509,32.7912375 C-11.189002,76.2477505 -11.189002,146.704623 34.605509,190.161136 L34.605509,190.161136 C80.4009581,233.618094 154.649232,233.618094 200.443743,190.161136 L200.443743,190.161136 C246.239192,146.704623 246.239192,76.2477505 200.443743,32.7912375 L200.443743,32.7912375 C177.546487,11.0627585 147.535908,0.198518962 117.525329,0.198518962 L117.525329,0.198518962 C87.5142814,0.198518962 57.5032335,11.0627585 34.605509,32.7912375 L34.605509,32.7912375 Z" id="path-7"></path>
        <path d="M34.605509,32.7912375 C-11.189002,76.2477505 -11.189002,146.704623 34.605509,190.161136 L34.605509,190.161136 C80.4009581,233.618094 154.649232,233.618094 200.443743,190.161136 L200.443743,190.161136 C246.239192,146.704623 246.239192,76.2477505 200.443743,32.7912375 L200.443743,32.7912375 C177.546487,11.0627585 147.535908,0.198518962 117.525329,0.198518962 L117.525329,0.198518962 C87.5142814,0.198518962 57.5032335,11.0627585 34.605509,32.7912375 L34.605509,32.7912375 Z" id="path-9"></path>
        <path d="M34.605509,32.7912375 C-11.189002,76.2477505 -11.189002,146.704623 34.605509,190.161136 L34.605509,190.161136 C80.4009581,233.618094 154.649232,233.618094 200.443743,190.161136 L200.443743,190.161136 C246.239192,146.704623 246.239192,76.2477505 200.443743,32.7912375 L200.443743,32.7912375 C177.546487,11.0627585 147.535908,0.198518962 117.525329,0.198518962 L117.525329,0.198518962 C87.5142814,0.198518962 57.5032335,11.0627585 34.605509,32.7912375 L34.605509,32.7912375 Z" id="path-11"></path>
        <path d="M34.605509,32.7912375 C-11.189002,76.2477505 -11.189002,146.704623 34.605509,190.161136 L34.605509,190.161136 C80.4009581,233.618094 154.649232,233.618094 200.443743,190.161136 L200.443743,190.161136 C246.239192,146.704623 246.239192,76.2477505 200.443743,32.7912375 L200.443743,32.7912375 C177.546487,11.0627585 147.535908,0.198518962 117.525329,0.198518962 L117.525329,0.198518962 C87.5142814,0.198518962 57.5032335,11.0627585 34.605509,32.7912375 L34.605509,32.7912375 Z" id="path-13"></path>
        <path d="M34.605509,32.7912375 C-11.189002,76.2477505 -11.189002,146.704623 34.605509,190.161136 L34.605509,190.161136 C80.4009581,233.618094 154.649232,233.618094 200.443743,190.161136 L200.443743,190.161136 C246.239192,146.704623 246.239192,76.2477505 200.443743,32.7912375 L200.443743,32.7912375 C177.546487,11.0627585 147.535908,0.198518962 117.525329,0.198518962 L117.525329,0.198518962 C87.5142814,0.198518962 57.5032335,11.0627585 34.605509,32.7912375 L34.605509,32.7912375 Z" id="path-15"></path>
        <path d="M34.605509,32.7912375 C-11.189002,76.2477505 -11.189002,146.704623 34.605509,190.161136 L34.605509,190.161136 C80.4009581,233.618094 154.649232,233.618094 200.443743,190.161136 L200.443743,190.161136 C246.239192,146.704623 246.239192,76.2477505 200.443743,32.7912375 L200.443743,32.7912375 C177.546487,11.0627585 147.535908,0.198518962 117.525329,0.198518962 L117.525329,0.198518962 C87.5142814,0.198518962 57.5032335,11.0627585 34.605509,32.7912375 L34.605509,32.7912375 Z" id="path-17"></path>
        <path d="M34.605509,32.7912375 C-11.189002,76.2477505 -11.189002,146.704623 34.605509,190.161136 L34.605509,190.161136 C80.4009581,233.618094 154.649232,233.618094 200.443743,190.161136 L200.443743,190.161136 C246.239192,146.704623 246.239192,76.2477505 200.443743,32.7912375 L200.443743,32.7912375 C177.546487,11.0627585 147.535908,0.198518962 117.525329,0.198518962 L117.525329,0.198518962 C87.5142814,0.198518962 57.5032335,11.0627585 34.605509,32.7912375 L34.605509,32.7912375 Z" id="path-19"></path>
        <path d="M34.605509,32.7912375 C-11.189002,76.2477505 -11.189002,146.704623 34.605509,190.161136 L34.605509,190.161136 C80.4009581,233.618094 154.649232,233.618094 200.443743,190.161136 L200.443743,190.161136 C246.239192,146.704623 246.239192,76.2477505 200.443743,32.7912375 L200.443743,32.7912375 C177.546487,11.0627585 147.535908,0.198518962 117.525329,0.198518962 L117.525329,0.198518962 C87.5142814,0.198518962 57.5032335,11.0627585 34.605509,32.7912375 L34.605509,32.7912375 Z" id="path-21"></path>
        <path d="M34.605509,32.7912375 C-11.189002,76.2477505 -11.189002,146.704623 34.605509,190.161136 L34.605509,190.161136 C80.4009581,233.618094 154.649232,233.618094 200.443743,190.161136 L200.443743,190.161136 C246.239192,146.704623 246.239192,76.2477505 200.443743,32.7912375 L200.443743,32.7912375 C177.546487,11.0627585 147.535908,0.198518962 117.525329,0.198518962 L117.525329,0.198518962 C87.5142814,0.198518962 57.5032335,11.0627585 34.605509,32.7912375 L34.605509,32.7912375 Z" id="path-23"></path>
        <path d="M34.605509,32.7912375 C-11.189002,76.2477505 -11.189002,146.704623 34.605509,190.161136 L34.605509,190.161136 C80.4009581,233.618094 154.649232,233.618094 200.443743,190.161136 L200.443743,190.161136 C246.239192,146.704623 246.239192,76.2477505 200.443743,32.7912375 L200.443743,32.7912375 C177.546487,11.0627585 147.535908,0.198518962 117.525329,0.198518962 L117.525329,0.198518962 C87.5142814,0.198518962 57.5032335,11.0627585 34.605509,32.7912375 L34.605509,32.7912375 Z" id="path-25"></path>
        <path d="M34.605509,32.7912375 C-11.189002,76.2477505 -11.189002,146.704623 34.605509,190.161136 L34.605509,190.161136 C80.4009581,233.618094 154.649232,233.618094 200.443743,190.161136 L200.443743,190.161136 C246.239192,146.704623 246.239192,76.2477505 200.443743,32.7912375 L200.443743,32.7912375 C177.546487,11.0627585 147.535908,0.198518962 117.525329,0.198518962 L117.525329,0.198518962 C87.5142814,0.198518962 57.5032335,11.0627585 34.605509,32.7912375 L34.605509,32.7912375 Z" id="path-27"></path>
        <path d="M34.605509,32.7912375 C-11.189002,76.2477505 -11.189002,146.704623 34.605509,190.161136 L34.605509,190.161136 C80.4009581,233.618094 154.649232,233.618094 200.443743,190.161136 L200.443743,190.161136 C246.239192,146.704623 246.239192,76.2477505 200.443743,32.7912375 L200.443743,32.7912375 C177.546487,11.0627585 147.535908,0.198518962 117.525329,0.198518962 L117.525329,0.198518962 C87.5142814,0.198518962 57.5032335,11.0627585 34.605509,32.7912375 L34.605509,32.7912375 Z" id="path-29"></path>
        <path d="M34.605509,32.7912375 C-11.189002,76.2477505 -11.189002,146.704623 34.605509,190.161136 L34.605509,190.161136 C80.4009581,233.618094 154.649232,233.618094 200.443743,190.161136 L200.443743,190.161136 C246.239192,146.704623 246.239192,76.2477505 200.443743,32.7912375 L200.443743,32.7912375 C177.546487,11.0627585 147.535908,0.198518962 117.525329,0.198518962 L117.525329,0.198518962 C87.5142814,0.198518962 57.5032335,11.0627585 34.605509,32.7912375 L34.605509,32.7912375 Z" id="path-31"></path>
        <path d="M34.605509,32.7912375 C-11.189002,76.2477505 -11.189002,146.704623 34.605509,190.161136 L34.605509,190.161136 C80.4009581,233.618094 154.649232,233.618094 200.443743,190.161136 L200.443743,190.161136 C246.239192,146.704623 246.239192,76.2477505 200.443743,32.7912375 L200.443743,32.7912375 C177.546487,11.0627585 147.535908,0.198518962 117.525329,0.198518962 L117.525329,0.198518962 C87.5142814,0.198518962 57.5032335,11.0627585 34.605509,32.7912375 L34.605509,32.7912375 Z" id="path-33"></path>
        <path d="M34.605509,32.7912375 C-11.189002,76.2477505 -11.189002,146.704623 34.605509,190.161136 L34.605509,190.161136 C80.4009581,233.618094 154.649232,233.618094 200.443743,190.161136 L200.443743,190.161136 C246.239192,146.704623 246.239192,76.2477505 200.443743,32.7912375 L200.443743,32.7912375 C177.546487,11.0627585 147.535908,0.198518962 117.525329,0.198518962 L117.525329,0.198518962 C87.5142814,0.198518962 57.5032335,11.0627585 34.605509,32.7912375 L34.605509,32.7912375 Z" id="path-35"></path>
        <path d="M34.605509,32.7912375 C-11.189002,76.2477505 -11.189002,146.704623 34.605509,190.161136 L34.605509,190.161136 C80.4009581,233.618094 154.649232,233.618094 200.443743,190.161136 L200.443743,190.161136 C246.239192,146.704623 246.239192,76.2477505 200.443743,32.7912375 L200.443743,32.7912375 C177.546487,11.0627585 147.535908,0.198518962 117.525329,0.198518962 L117.525329,0.198518962 C87.5142814,0.198518962 57.5032335,11.0627585 34.605509,32.7912375 L34.605509,32.7912375 Z" id="path-37"></path>
        <path d="M34.605509,32.7912375 C-11.189002,76.2477505 -11.189002,146.704623 34.605509,190.161136 L34.605509,190.161136 C80.4009581,233.618094 154.649232,233.618094 200.443743,190.161136 L200.443743,190.161136 C246.239192,146.704623 246.239192,76.2477505 200.443743,32.7912375 L200.443743,32.7912375 C177.546487,11.0627585 147.535908,0.198518962 117.525329,0.198518962 L117.525329,0.198518962 C87.5142814,0.198518962 57.5032335,11.0627585 34.605509,32.7912375 L34.605509,32.7912375 Z" id="path-39"></path>
        <polygon id="path-41" points="0.260705882 0.196540856 47.9613647 0.196540856 47.9613647 112.916855 0.260705882 112.916855"></polygon>
        <polygon id="path-43" points="0.256396694 0.197586957 55.6251702 0.197586957 55.6251702 121.594704 0.256396694 121.594704"></polygon>
        <polygon id="path-45" points="0.259064748 0.197653061 64.7491655 0.197653061 64.7491655 129.715459 0.259064748 129.715459"></polygon>
        <polygon id="path-47" points="0.257592357 0.197711538 72.8777134 0.197711538 72.8777134 137.836567 0.257592357 137.836567"></polygon>
        <polygon id="path-49" points="0.258113636 0.197763636 81.538517 0.197763636 81.538517 145.957041 0.258113636 145.957041"></polygon>
        <polygon id="path-51" points="0.258146597 0.198524355 88.792178 0.198524355 88.792178 154.633996 0.258146597 154.633996"></polygon>
        <polygon id="path-53" points="0.258146597 0.235700831 88.792178 0.235700831 88.792178 159.756144 0.258146597 159.756144"></polygon>
        <polygon id="path-55" points="0.258146597 0.356919668 88.792178 0.356919668 88.792178 159.87692 0.258146597 159.87692"></polygon>
        <polygon id="path-57" points="0.258146597 0.0347591667 88.792178 0.0347591667 88.792178 158.998101 0.258146597 158.998101"></polygon>
        <polygon id="path-59" points="0.258146597 0.155612188 88.792178 0.155612188 88.792178 159.676055 0.258146597 159.676055"></polygon>
        <polygon id="path-61" points="0.258146597 0.276831025 88.792178 0.276831025 88.792178 159.797274 0.258146597 159.797274"></polygon>
        <polygon id="path-63" points="0.258146597 0.39800554 88.792178 0.39800554 88.792178 159.918006 0.258146597 159.918006"></polygon>
        <polygon id="path-65" points="0.258146597 0.0760110803 88.792178 0.0760110803 88.792178 159.596011 0.258146597 159.596011"></polygon>
        <polygon id="path-67" points="0.258146597 0.196742382 88.792178 0.196742382 88.792178 159.717186 0.258146597 159.717186"></polygon>
        <polygon id="path-69" points="0.258146597 0.318616046 88.792178 0.318616046 88.792178 154.754398 0.258146597 154.754398"></polygon>
        <polygon id="path-71" points="0.045592 0.437029607 81.7910171 0.437029607 81.7910171 145.756079 0.045592 145.756079"></polygon>
        <polygon id="path-73" points="0.171945223 0.116459615 72.7926242 0.116459615 72.7926242 137.755404 0.171945223 137.755404"></polygon>
        <polygon id="path-75" points="0.300776978 0.237316327 64.7914388 0.237316327 64.7914388 129.755476 0.300776978 129.755476"></polygon>
        <polygon id="path-77" points="0.424257851 0.358131884 55.7935868 0.358131884 55.7935868 121.755558 0.424257851 121.755558"></polygon>
        <polygon id="path-79" points="0.0891294118 0.0361863813 47.7901176 0.0361863813 47.7901176 112.756852 0.0891294118 112.756852"></polygon>
    </defs>
    <g id="Page-1" stroke="none" stroke-width="1" fill="none" fill-rule="evenodd">
        <g id="Landing" transform="translate(-254.000000, -2240.000000)">
            <g id="Group-4" transform="translate(254.000000, 2240.000000)">
                <g id="Page-1-Copy">
                    <g id="Group-3">
                        <mask id="mask-2" fill="white">
                            <use xlink:href="#path-1"></use>
                        </mask>
                        <g id="Clip-2"></g>
                        <polygon id="Fill-1" fill="#FFFFFF" mask="url(#mask-2)" points="-45.3283104 114.309043 -48.3134202 111.476365 117.524813 -45.8935335 120.509923 -43.0613"></polygon>
                    </g>
                    <g id="Group-6">
                        <mask id="mask-4" fill="white">
                            <use xlink:href="#path-3"></use>
                        </mask>
                        <g id="Clip-5"></g>
                        <polygon id="Fill-4" fill="#FFFFFF" mask="url(#mask-4)" points="129.081185 -34.92772 -36.7570489 122.442178 -39.7421587 119.609945 126.096075 -37.7603986"></polygon>
                    </g>
                    <g id="Group-9">
                        <mask id="mask-6" fill="white">
                            <use xlink:href="#path-5"></use>
                        </mask>
                        <g id="Clip-8"></g>
                        <polygon id="Fill-7" fill="#FFFFFF" mask="url(#mask-6)" points="137.652587 -26.7940509 -28.1856467 130.575847 -31.1707565 127.743169 134.667477 -29.6267295"></polygon>
                    </g>
                    <g id="Group-12">
                        <mask id="mask-8" fill="white">
                            <use xlink:href="#path-7"></use>
                        </mask>
                        <g id="Clip-11"></g>
                        <polygon id="Fill-10" fill="#FFFFFF" mask="url(#mask-8)" points="146.223942 -18.6605599 -19.6147605 138.709783 -22.5994012 135.87666 143.238832 -21.4932385"></polygon>
                    </g>
                    <g id="Group-15">
                        <mask id="mask-10" fill="white">
                            <use xlink:href="#path-9"></use>
                        </mask>
                        <g id="Clip-14"></g>
                        <polygon id="Fill-13" fill="#FFFFFF" mask="url(#mask-10)" points="154.794875 -10.5268908 -11.0433583 146.843007 -14.0284681 144.010329 151.810235 -13.3595695"></polygon>
                    </g>
                    <g id="Group-18">
                        <mask id="mask-12" fill="white">
                            <use xlink:href="#path-11"></use>
                        </mask>
                        <g id="Clip-17"></g>
                        <polygon id="Fill-16" fill="#FFFFFF" mask="url(#mask-12)" points="163.366231 -2.3933998 -2.47200299 154.976498 -5.45711277 152.14382 160.381121 -5.22607844"></polygon>
                    </g>
                    <g id="Group-21">
                        <mask id="mask-14" fill="white">
                            <use xlink:href="#path-13"></use>
                        </mask>
                        <g id="Clip-20"></g>
                        <polygon id="Fill-19" fill="#FFFFFF" mask="url(#mask-14)" points="171.937586 5.74004671 6.09888323 163.11039 3.11424251 160.277266 168.952476 2.90736806"></polygon>
                    </g>
                    <g id="Group-24">
                        <mask id="mask-16" fill="white">
                            <use xlink:href="#path-15"></use>
                        </mask>
                        <g id="Clip-23"></g>
                        <polygon id="Fill-22" fill="#FFFFFF" mask="url(#mask-16)" points="180.508519 13.8737603 14.6702854 171.243658 11.6851756 168.41098 177.523878 11.0410816"></polygon>
                    </g>
                    <g id="Group-27">
                        <mask id="mask-18" fill="white">
                            <use xlink:href="#path-17"></use>
                        </mask>
                        <g id="Clip-26"></g>
                        <polygon id="Fill-25" fill="#FFFFFF" mask="url(#mask-18)" points="189.079874 22.0072068 23.2416407 179.377105 20.2565309 176.544426 186.094764 19.1745281"></polygon>
                    </g>
                    <g id="Group-30">
                        <mask id="mask-20" fill="white">
                            <use xlink:href="#path-19"></use>
                        </mask>
                        <g id="Clip-29"></g>
                        <polygon id="Fill-28" fill="#FFFFFF" mask="url(#mask-20)" points="197.651276 30.1406533 31.8125739 187.510997 28.8279331 184.677873 194.666167 27.3079747"></polygon>
                    </g>
                    <g id="Group-33">
                        <mask id="mask-22" fill="white">
                            <use xlink:href="#path-21"></use>
                        </mask>
                        <g id="Clip-32"></g>
                        <polygon id="Fill-31" fill="#FFFFFF" mask="url(#mask-22)" points="206.222632 38.2743669 40.3839291 195.64471 37.3988194 192.811586 203.237522 35.4416882"></polygon>
                    </g>
                    <g id="Group-36">
                        <mask id="mask-24" fill="white">
                            <use xlink:href="#path-23"></use>
                        </mask>
                        <g id="Clip-35"></g>
                        <polygon id="Fill-34" fill="#FFFFFF" mask="url(#mask-24)" points="214.793565 46.4080359 48.9553313 203.777934 45.9702216 200.945255 211.808924 43.5753573"></polygon>
                    </g>
                    <g id="Group-39">
                        <mask id="mask-26" fill="white">
                            <use xlink:href="#path-25"></use>
                        </mask>
                        <g id="Clip-38"></g>
                        <polygon id="Fill-37" fill="#FFFFFF" mask="url(#mask-26)" points="223.36492 54.5413044 57.5262176 211.911648 54.5415768 209.078524 220.37981 51.7090709"></polygon>
                    </g>
                    <g id="Group-42">
                        <mask id="mask-28" fill="white">
                            <use xlink:href="#path-27"></use>
                        </mask>
                        <g id="Clip-41"></g>
                        <polygon id="Fill-40" fill="#FFFFFF" mask="url(#mask-28)" points="231.936275 62.6749735 66.0975729 220.045317 63.1124631 217.212193 228.951166 59.8422948"></polygon>
                    </g>
                    <g id="Group-45">
                        <mask id="mask-30" fill="white">
                            <use xlink:href="#path-29"></use>
                        </mask>
                        <g id="Clip-44"></g>
                        <polygon id="Fill-43" fill="#FFFFFF" mask="url(#mask-30)" points="240.507209 70.808687 74.668975 228.178585 71.6838653 225.345907 237.522568 67.9760084"></polygon>
                    </g>
                    <g id="Group-48">
                        <mask id="mask-32" fill="white">
                            <use xlink:href="#path-31"></use>
                        </mask>
                        <g id="Clip-47"></g>
                        <polygon id="Fill-46" fill="#FFFFFF" mask="url(#mask-32)" points="249.078564 78.941911 83.2403303 236.312254 80.2552206 233.479131 246.093454 76.1096774"></polygon>
                    </g>
                    <g id="Group-51">
                        <mask id="mask-34" fill="white">
                            <use xlink:href="#path-33"></use>
                        </mask>
                        <g id="Clip-50"></g>
                        <polygon id="Fill-49" fill="#FFFFFF" mask="url(#mask-34)" points="257.649966 87.0756246 91.8112635 244.445968 88.8266228 241.612844 254.664856 84.2429459"></polygon>
                    </g>
                    <g id="Group-54">
                        <mask id="mask-36" fill="white">
                            <use xlink:href="#path-35"></use>
                        </mask>
                        <g id="Clip-53"></g>
                        <polygon id="Fill-52" fill="#FFFFFF" mask="url(#mask-36)" points="266.220852 95.2092936 100.382619 252.579192 97.397509 249.746513 263.236212 92.376615"></polygon>
                    </g>
                    <g id="Group-57">
                        <mask id="mask-38" fill="white">
                            <use xlink:href="#path-37"></use>
                        </mask>
                        <g id="Clip-56"></g>
                        <polygon id="Fill-55" fill="#FFFFFF" mask="url(#mask-38)" points="274.792254 103.342562 108.954021 260.712905 105.968911 257.879782 271.807145 100.510329"></polygon>
                    </g>
                    <g id="Group-60">
                        <mask id="mask-40" fill="white">
                            <use xlink:href="#path-39"></use>
                        </mask>
                        <g id="Clip-59"></g>
                        <polygon id="Fill-58" fill="#FFFFFF" mask="url(#mask-40)" points="117.525048 268.846441 114.539938 266.013762 280.378172 108.643419 283.36375 111.476098"></polygon>
                    </g>
                </g>
                <g id="Page-1-Copy-2" transform="translate(237.000000, 1.000000)">
                    <g id="Group-3">
                        <mask id="mask-42" fill="white">
                            <use xlink:href="#path-41"></use>
                        </mask>
                        <g id="Clip-2"></g>
                        <polygon id="Fill-1" fill="#FFFFFF" mask="url(#mask-42)" points="-118.416988 112.916855 -121.411812 110.118676 44.9660706 -45.3345887 47.9613647 -42.5368494"></polygon>
                    </g>
                    <g id="Group-6">
                        <mask id="mask-44" fill="white">
                            <use xlink:href="#path-43"></use>
                        </mask>
                        <g id="Clip-5"></g>
                        <polygon id="Fill-4" fill="#FFFFFF" mask="url(#mask-44)" points="55.6251702 -34.6859703 -108.002664 121.594704 -110.947987 118.782073 52.6803107 -37.4990428"></polygon>
                    </g>
                    <g id="Group-9">
                        <mask id="mask-46" fill="white">
                            <use xlink:href="#path-45"></use>
                        </mask>
                        <g id="Clip-8"></g>
                        <polygon id="Fill-7" fill="#FFFFFF" mask="url(#mask-46)" points="64.7491655 -26.6175 -100.581842 129.715459 -103.557345 126.901446 61.7731942 -29.4315136"></polygon>
                    </g>
                    <g id="Group-12">
                        <mask id="mask-48" fill="white">
                            <use xlink:href="#path-47"></use>
                        </mask>
                        <g id="Clip-11"></g>
                        <polygon id="Fill-10" fill="#FFFFFF" mask="url(#mask-48)" points="72.8777134 -18.5430865 -91.5136369 137.836567 -94.4726943 135.021279 69.9186561 -21.3579327"></polygon>
                    </g>
                    <g id="Group-15">
                        <mask id="mask-50" fill="white">
                            <use xlink:href="#path-49"></use>
                        </mask>
                        <g id="Clip-14"></g>
                        <polygon id="Fill-13" fill="#FFFFFF" mask="url(#mask-50)" points="81.538517 -10.4633776 -83.1850398 145.957041 -86.1500852 143.141453 78.5739375 -13.2789655"></polygon>
                    </g>
                    <g id="Group-18">
                        <mask id="mask-52" fill="white">
                            <use xlink:href="#path-51"></use>
                        </mask>
                        <g id="Clip-17"></g>
                        <polygon id="Fill-16" fill="#FFFFFF" mask="url(#mask-52)" points="90.0637597 -2.38811032 -74.6812979 154.633996 -77.646256 151.807577 87.0983356 -5.21452865"></polygon>
                    </g>
                    <g id="Group-21" transform="translate(0.000000, 3.000000)">
                        <mask id="mask-54" fill="white">
                            <use xlink:href="#path-53"></use>
                        </mask>
                        <g id="Clip-20"></g>
                        <polygon id="Fill-19" fill="#FFFFFF" mask="url(#mask-54)" points="98.5785901 3.05631025 -66.1664675 159.756144 -69.1318916 156.935091 95.613166 0.235700831"></polygon>
                    </g>
                    <g id="Group-24" transform="translate(0.000000, 11.000000)">
                        <mask id="mask-56" fill="white">
                            <use xlink:href="#path-55"></use>
                        </mask>
                        <g id="Clip-23"></g>
                        <polygon id="Fill-22" fill="#FFFFFF" mask="url(#mask-56)" points="107.093001 3.17752909 -57.6515906 159.87692 -60.6170147 157.05631 104.128043 0.356919668"></polygon>
                    </g>
                    <g id="Group-27" transform="translate(0.000000, 19.000000)">
                        <mask id="mask-58" fill="white">
                            <use xlink:href="#path-57"></use>
                        </mask>
                        <g id="Clip-26"></g>
                        <polygon id="Fill-25" fill="#FFFFFF" mask="url(#mask-58)" points="115.607831 2.84508417 -49.1372262 158.998101 -52.1021843 156.186892 112.642407 0.0347591667"></polygon>
                    </g>
                    <g id="Group-30" transform="translate(0.000000, 27.000000)">
                        <mask id="mask-60" fill="white">
                            <use xlink:href="#path-59"></use>
                        </mask>
                        <g id="Clip-29"></g>
                        <polygon id="Fill-28" fill="#FFFFFF" mask="url(#mask-60)" points="124.122708 2.97622161 -40.6223492 159.676055 -43.5877733 156.855003 121.157284 0.155612188"></polygon>
                    </g>
                    <g id="Group-33" transform="translate(0.000000, 35.000000)">
                        <mask id="mask-62" fill="white">
                            <use xlink:href="#path-61"></use>
                        </mask>
                        <g id="Clip-32"></g>
                        <polygon id="Fill-31" fill="#FFFFFF" mask="url(#mask-62)" points="132.637539 3.09744044 -32.1075188 159.797274 -35.0729429 156.976222 129.672115 0.276831025"></polygon>
                    </g>
                    <g id="Group-36" transform="translate(0.000000, 43.000000)">
                        <mask id="mask-64" fill="white">
                            <use xlink:href="#path-63"></use>
                        </mask>
                        <g id="Clip-35"></g>
                        <polygon id="Fill-34" fill="#FFFFFF" mask="url(#mask-64)" points="141.15195 3.21861496 -23.5926419 159.918006 -26.558066 157.097396 138.186992 0.39800554"></polygon>
                    </g>
                    <g id="Group-39" transform="translate(0.000000, 51.000000)">
                        <mask id="mask-66" fill="white">
                            <use xlink:href="#path-65"></use>
                        </mask>
                        <g id="Clip-38"></g>
                        <polygon id="Fill-37" fill="#FFFFFF" mask="url(#mask-66)" points="149.66678 2.89617729 -15.0782775 159.596011 -18.0432356 156.774958 146.701356 0.0760110803"></polygon>
                    </g>
                    <g id="Group-42" transform="translate(0.000000, 59.000000)">
                        <mask id="mask-68" fill="white">
                            <use xlink:href="#path-67"></use>
                        </mask>
                        <g id="Clip-41"></g>
                        <polygon id="Fill-40" fill="#FFFFFF" mask="url(#mask-68)" points="158.18161 3.0173518 -6.56344712 159.717186 -9.5288712 156.896133 155.216186 0.196742382"></polygon>
                    </g>
                    <g id="Group-45" transform="translate(0.000000, 67.000000)">
                        <mask id="mask-70" fill="white">
                            <use xlink:href="#path-69"></use>
                        </mask>
                        <g id="Clip-44"></g>
                        <polygon id="Fill-43" fill="#FFFFFF" mask="url(#mask-70)" points="166.696021 3.14503438 1.95142984 160.16714 -1.01399424 157.340722 163.731063 0.318616046"></polygon>
                    </g>
                    <g id="Group-48" transform="translate(7.000000, 75.000000)">
                        <mask id="mask-72" fill="white">
                            <use xlink:href="#path-71"></use>
                        </mask>
                        <g id="Clip-47"></g>
                        <polygon id="Fill-46" fill="#FFFFFF" mask="url(#mask-72)" points="168.692415 3.24367009 3.027112 159.19196 0.045592 156.384437 165.710426 0.437029607"></polygon>
                    </g>
                    <g id="Group-51" transform="translate(16.000000, 84.000000)">
                        <mask id="mask-74" fill="white">
                            <use xlink:href="#path-73"></use>
                        </mask>
                        <g id="Clip-50"></g>
                        <polygon id="Fill-49" fill="#FFFFFF" mask="url(#mask-74)" points="167.522353 2.93130577 3.13100255 159.31096 0.171945223 156.495671 164.563296 0.116459615"></polygon>
                    </g>
                    <g id="Group-54" transform="translate(24.000000, 92.000000)">
                        <mask id="mask-76" fill="white">
                            <use xlink:href="#path-75"></use>
                        </mask>
                        <g id="Clip-53"></g>
                        <polygon id="Fill-52" fill="#FFFFFF" mask="url(#mask-76)" points="168.607288 3.05132993 3.2767482 159.384289 0.300776978 156.570276 165.631784 0.237316327"></polygon>
                    </g>
                    <g id="Group-57" transform="translate(33.000000, 100.000000)">
                        <mask id="mask-78" fill="white">
                            <use xlink:href="#path-77"></use>
                        </mask>
                        <g id="Clip-56"></g>
                        <polygon id="Fill-55" fill="#FFFFFF" mask="url(#mask-78)" points="166.997415 3.17076232 3.36911736 159.451878 0.424257851 156.638364 164.052093 0.358131884"></polygon>
                    </g>
                    <g id="Group-60" transform="translate(41.000000, 108.000000)">
                        <mask id="mask-80" fill="white">
                            <use xlink:href="#path-79"></use>
                        </mask>
                        <g id="Clip-59"></g>
                        <polygon id="Fill-58" fill="#FFFFFF" mask="url(#mask-80)" points="3.08395294 158.28807 0.0891294118 155.489891 166.467012 0.0361863813 169.462306 2.83436537"></polygon>
                    </g>
                </g>
            </g>
        </g>
    </g>
</svg>